<?xml version="1.0" encoding="UTF-8"?>
<svg xmlns="http://www.w3.org/2000/svg" xmlns:xlink="http://www.w3.org/1999/xlink" viewBox="0 0 35 35" width="34px" height="34px">
<g id="surface185231949">
<path style=" stroke:none;fill-rule:nonzero;fill:rgb(100%,100%,100%);fill-opacity:1;" d="M 17.5 1.640625 C 8.753906 1.640625 1.640625 8.753906 1.640625 17.5 C 1.640625 26.246094 8.753906 33.359375 17.5 33.359375 C 26.246094 33.359375 33.359375 26.246094 33.359375 17.5 C 33.359375 8.753906 26.246094 1.640625 17.5 1.640625 Z M 17.5 2.734375 C 25.640625 2.734375 32.265625 9.359375 32.265625 17.5 C 32.265625 25.640625 25.640625 32.265625 17.5 32.265625 C 9.359375 32.265625 2.734375 25.640625 2.734375 17.5 C 2.734375 9.359375 9.359375 2.734375 17.5 2.734375 Z M 17.5 4.921875 C 10.5625 4.921875 4.921875 10.566406 4.921875 17.5 C 4.921875 17.800781 5.167969 18.046875 5.46875 18.046875 C 5.769531 18.046875 6.015625 17.800781 6.015625 17.5 C 6.015625 11.167969 11.167969 6.015625 17.5 6.015625 C 23.832031 6.015625 28.984375 11.167969 28.984375 17.5 C 28.984375 23.832031 23.832031 28.984375 17.5 28.984375 C 17.199219 28.984375 16.953125 29.230469 16.953125 29.53125 C 16.953125 29.832031 17.199219 30.078125 17.5 30.078125 C 24.4375 30.078125 30.078125 24.433594 30.078125 17.5 C 30.078125 10.566406 24.4375 4.921875 17.5 4.921875 Z M 22.621094 10.953125 C 22.414062 10.929688 22.183594 10.964844 21.949219 11.058594 C 21.546875 11.214844 10.605469 15.828125 10.175781 16.011719 C 9.726562 16.164062 9.230469 16.550781 9.304688 17.132812 C 9.386719 17.796875 10.078125 18.058594 10.164062 18.089844 L 12.832031 18.988281 C 13.054688 19.722656 13.667969 21.730469 13.8125 22.179688 C 13.882812 22.40625 14.0625 22.972656 14.476562 23.101562 C 14.796875 23.214844 15.113281 23.105469 15.324219 22.941406 L 16.882812 21.523438 L 19.472656 23.507812 L 19.585938 23.574219 C 19.820312 23.679688 20.03125 23.714844 20.214844 23.714844 C 20.40625 23.714844 20.5625 23.671875 20.683594 23.625 C 21.179688 23.421875 21.378906 22.953125 21.402344 22.902344 L 23.460938 12.390625 C 23.613281 11.71875 23.386719 11.359375 23.171875 11.175781 C 23.023438 11.046875 22.832031 10.972656 22.621094 10.953125 Z M 22.414062 12.050781 C 22.410156 12.082031 22.402344 12.121094 22.390625 12.167969 L 20.371094 22.515625 C 20.351562 22.546875 20.316406 22.59375 20.269531 22.613281 C 20.214844 22.632812 20.136719 22.617188 20.078125 22.59375 L 16.820312 20.097656 L 14.867188 21.882812 L 15.28125 19.257812 C 15.28125 19.257812 20.339844 14.539062 20.558594 14.335938 C 20.777344 14.132812 20.703125 14.089844 20.703125 14.089844 C 20.71875 13.84375 20.375 14.019531 20.375 14.019531 L 13.714844 18.144531 L 13.710938 18.132812 L 10.53125 17.058594 C 10.523438 17.058594 10.519531 17.054688 10.511719 17.054688 C 10.53125 17.046875 10.546875 17.039062 10.566406 17.03125 C 14.5 15.371094 22.023438 12.203125 22.347656 12.074219 C 22.371094 12.066406 22.394531 12.058594 22.414062 12.050781 Z M 6.566406 20.253906 C 6.492188 20.246094 6.421875 20.25 6.347656 20.273438 L 5.300781 20.589844 C 5.011719 20.675781 4.847656 20.980469 4.933594 21.269531 C 5.003906 21.503906 5.222656 21.660156 5.457031 21.660156 C 5.507812 21.660156 5.5625 21.652344 5.613281 21.636719 L 6.660156 21.320312 C 6.949219 21.234375 7.117188 20.929688 7.027344 20.640625 C 6.964844 20.421875 6.777344 20.277344 6.566406 20.253906 Z M 7.5625 22.839844 C 7.492188 22.847656 7.421875 22.871094 7.359375 22.910156 L 6.417969 23.472656 C 6.160156 23.628906 6.074219 23.964844 6.230469 24.222656 C 6.332031 24.394531 6.515625 24.488281 6.699219 24.488281 C 6.796875 24.488281 6.894531 24.464844 6.980469 24.410156 L 7.917969 23.851562 C 8.179688 23.695312 8.261719 23.359375 8.109375 23.101562 C 7.992188 22.90625 7.773438 22.808594 7.5625 22.839844 Z M 9.371094 25.0625 C 9.230469 25.0625 9.089844 25.117188 8.984375 25.222656 L 8.210938 25.996094 C 7.996094 26.210938 7.996094 26.554688 8.207031 26.769531 C 8.316406 26.878906 8.457031 26.929688 8.597656 26.929688 C 8.734375 26.929688 8.875 26.878906 8.980469 26.769531 L 9.757812 25.996094 C 9.96875 25.785156 9.96875 25.441406 9.757812 25.226562 C 9.648438 25.117188 9.511719 25.066406 9.371094 25.0625 Z M 11.671875 26.804688 C 11.460938 26.777344 11.242188 26.871094 11.125 27.066406 L 10.5625 28.003906 C 10.410156 28.261719 10.492188 28.597656 10.75 28.753906 C 10.839844 28.808594 10.9375 28.832031 11.03125 28.832031 C 11.21875 28.832031 11.398438 28.738281 11.5 28.566406 L 12.0625 27.628906 C 12.21875 27.371094 12.136719 27.035156 11.878906 26.878906 C 11.8125 26.839844 11.742188 26.816406 11.671875 26.804688 Z M 14.117188 27.945312 C 13.90625 27.96875 13.71875 28.113281 13.652344 28.328125 L 13.335938 29.375 C 13.25 29.664062 13.414062 29.972656 13.703125 30.058594 C 13.757812 30.074219 13.808594 30.082031 13.859375 30.082031 C 14.09375 30.082031 14.3125 29.929688 14.382812 29.695312 L 14.699219 28.644531 C 14.789062 28.355469 14.625 28.050781 14.335938 27.964844 C 14.261719 27.941406 14.1875 27.9375 14.117188 27.945312 Z M 14.117188 27.945312 "/>
</g>
</svg>
